<mxfile host="app.diagrams.net" agent="Mozilla/5.0 (Macintosh; Intel Mac OS X 10_15_7) AppleWebKit/537.36 (KHTML, like Gecko) Chrome/134.0.0.0 Safari/537.36" version="26.1.3">
  <diagram name="Page-1" id="lQeCwbz5eVoQsYC-0-gD">
    <mxGraphModel dx="1194" dy="789" grid="1" gridSize="10" guides="1" tooltips="1" connect="1" arrows="1" fold="1" page="1" pageScale="1" pageWidth="850" pageHeight="1100" math="0" shadow="0">
      <root>
        <mxCell id="0" />
        <mxCell id="1" parent="0" />
        <mxCell id="ZoTZD8bzn3sdyz4J9nl_-1" value="" style="ellipse;html=1;shape=startState;fillColor=#000000;strokeColor=#ff0000;" vertex="1" parent="1">
          <mxGeometry x="30" y="370" width="30" height="30" as="geometry" />
        </mxCell>
        <mxCell id="ZoTZD8bzn3sdyz4J9nl_-2" value="" style="edgeStyle=orthogonalEdgeStyle;html=1;verticalAlign=bottom;endArrow=open;endSize=8;strokeColor=#ff0000;rounded=0;entryX=0;entryY=0.5;entryDx=0;entryDy=0;" edge="1" source="ZoTZD8bzn3sdyz4J9nl_-1" parent="1" target="ZoTZD8bzn3sdyz4J9nl_-4">
          <mxGeometry relative="1" as="geometry">
            <mxPoint x="110" y="385" as="targetPoint" />
          </mxGeometry>
        </mxCell>
        <mxCell id="ZoTZD8bzn3sdyz4J9nl_-3" value="" style="ellipse;html=1;shape=endState;fillColor=#000000;strokeColor=#ff0000;" vertex="1" parent="1">
          <mxGeometry x="760" y="620" width="30" height="30" as="geometry" />
        </mxCell>
        <mxCell id="ZoTZD8bzn3sdyz4J9nl_-19" style="edgeStyle=orthogonalEdgeStyle;rounded=0;orthogonalLoop=1;jettySize=auto;html=1;entryX=0;entryY=0.5;entryDx=0;entryDy=0;" edge="1" parent="1" source="ZoTZD8bzn3sdyz4J9nl_-4" target="ZoTZD8bzn3sdyz4J9nl_-5">
          <mxGeometry relative="1" as="geometry" />
        </mxCell>
        <mxCell id="ZoTZD8bzn3sdyz4J9nl_-4" value="Player Triggers Cutscene" style="html=1;whiteSpace=wrap;" vertex="1" parent="1">
          <mxGeometry x="100" y="360" width="110" height="50" as="geometry" />
        </mxCell>
        <mxCell id="ZoTZD8bzn3sdyz4J9nl_-20" style="edgeStyle=orthogonalEdgeStyle;rounded=0;orthogonalLoop=1;jettySize=auto;html=1;entryX=0;entryY=0.5;entryDx=0;entryDy=0;" edge="1" parent="1" source="ZoTZD8bzn3sdyz4J9nl_-5" target="ZoTZD8bzn3sdyz4J9nl_-6">
          <mxGeometry relative="1" as="geometry" />
        </mxCell>
        <mxCell id="ZoTZD8bzn3sdyz4J9nl_-5" value="Disable player movement and camera controls" style="html=1;whiteSpace=wrap;" vertex="1" parent="1">
          <mxGeometry x="250" y="360" width="110" height="50" as="geometry" />
        </mxCell>
        <mxCell id="ZoTZD8bzn3sdyz4J9nl_-13" style="edgeStyle=orthogonalEdgeStyle;rounded=0;orthogonalLoop=1;jettySize=auto;html=1;entryX=0;entryY=0.5;entryDx=0;entryDy=0;" edge="1" parent="1" source="ZoTZD8bzn3sdyz4J9nl_-6" target="ZoTZD8bzn3sdyz4J9nl_-7">
          <mxGeometry relative="1" as="geometry" />
        </mxCell>
        <mxCell id="ZoTZD8bzn3sdyz4J9nl_-6" value="Perform Cutscene Event" style="html=1;whiteSpace=wrap;" vertex="1" parent="1">
          <mxGeometry x="400" y="360" width="110" height="50" as="geometry" />
        </mxCell>
        <mxCell id="ZoTZD8bzn3sdyz4J9nl_-14" style="edgeStyle=orthogonalEdgeStyle;rounded=0;orthogonalLoop=1;jettySize=auto;html=1;entryX=0.5;entryY=0;entryDx=0;entryDy=0;" edge="1" parent="1" source="ZoTZD8bzn3sdyz4J9nl_-7" target="ZoTZD8bzn3sdyz4J9nl_-8">
          <mxGeometry relative="1" as="geometry" />
        </mxCell>
        <mxCell id="ZoTZD8bzn3sdyz4J9nl_-23" value="[More Events]" style="edgeLabel;html=1;align=center;verticalAlign=middle;resizable=0;points=[];" vertex="1" connectable="0" parent="ZoTZD8bzn3sdyz4J9nl_-14">
          <mxGeometry x="-0.2222" y="2" relative="1" as="geometry">
            <mxPoint as="offset" />
          </mxGeometry>
        </mxCell>
        <mxCell id="ZoTZD8bzn3sdyz4J9nl_-15" style="edgeStyle=orthogonalEdgeStyle;rounded=0;orthogonalLoop=1;jettySize=auto;html=1;entryX=0;entryY=0.5;entryDx=0;entryDy=0;" edge="1" parent="1" source="ZoTZD8bzn3sdyz4J9nl_-7" target="ZoTZD8bzn3sdyz4J9nl_-9">
          <mxGeometry relative="1" as="geometry" />
        </mxCell>
        <mxCell id="ZoTZD8bzn3sdyz4J9nl_-18" value="[No more Events]" style="edgeLabel;html=1;align=center;verticalAlign=middle;resizable=0;points=[];" vertex="1" connectable="0" parent="ZoTZD8bzn3sdyz4J9nl_-15">
          <mxGeometry x="-0.2" relative="1" as="geometry">
            <mxPoint as="offset" />
          </mxGeometry>
        </mxCell>
        <mxCell id="ZoTZD8bzn3sdyz4J9nl_-7" value="" style="rhombus;whiteSpace=wrap;html=1;" vertex="1" parent="1">
          <mxGeometry x="550" y="360" width="50" height="50" as="geometry" />
        </mxCell>
        <mxCell id="ZoTZD8bzn3sdyz4J9nl_-16" style="edgeStyle=orthogonalEdgeStyle;rounded=0;orthogonalLoop=1;jettySize=auto;html=1;entryX=0.5;entryY=1;entryDx=0;entryDy=0;" edge="1" parent="1" source="ZoTZD8bzn3sdyz4J9nl_-8" target="ZoTZD8bzn3sdyz4J9nl_-6">
          <mxGeometry relative="1" as="geometry" />
        </mxCell>
        <mxCell id="ZoTZD8bzn3sdyz4J9nl_-22" value="[Continue]" style="edgeLabel;html=1;align=center;verticalAlign=middle;resizable=0;points=[];" vertex="1" connectable="0" parent="ZoTZD8bzn3sdyz4J9nl_-16">
          <mxGeometry x="0.2381" y="-2" relative="1" as="geometry">
            <mxPoint as="offset" />
          </mxGeometry>
        </mxCell>
        <mxCell id="ZoTZD8bzn3sdyz4J9nl_-17" style="edgeStyle=orthogonalEdgeStyle;rounded=0;orthogonalLoop=1;jettySize=auto;html=1;entryX=0;entryY=0.75;entryDx=0;entryDy=0;" edge="1" parent="1" source="ZoTZD8bzn3sdyz4J9nl_-8" target="ZoTZD8bzn3sdyz4J9nl_-9">
          <mxGeometry relative="1" as="geometry" />
        </mxCell>
        <mxCell id="ZoTZD8bzn3sdyz4J9nl_-21" value="[Exit Cutscene]" style="edgeLabel;html=1;align=center;verticalAlign=middle;resizable=0;points=[];" vertex="1" connectable="0" parent="ZoTZD8bzn3sdyz4J9nl_-17">
          <mxGeometry x="0.002" y="-1" relative="1" as="geometry">
            <mxPoint as="offset" />
          </mxGeometry>
        </mxCell>
        <mxCell id="ZoTZD8bzn3sdyz4J9nl_-8" value="" style="rhombus;whiteSpace=wrap;html=1;" vertex="1" parent="1">
          <mxGeometry x="550" y="500" width="50" height="50" as="geometry" />
        </mxCell>
        <mxCell id="ZoTZD8bzn3sdyz4J9nl_-12" style="edgeStyle=orthogonalEdgeStyle;rounded=0;orthogonalLoop=1;jettySize=auto;html=1;entryX=0.5;entryY=0;entryDx=0;entryDy=0;" edge="1" parent="1" source="ZoTZD8bzn3sdyz4J9nl_-9" target="ZoTZD8bzn3sdyz4J9nl_-10">
          <mxGeometry relative="1" as="geometry" />
        </mxCell>
        <mxCell id="ZoTZD8bzn3sdyz4J9nl_-9" value="Enable player movement and camera controls" style="html=1;whiteSpace=wrap;" vertex="1" parent="1">
          <mxGeometry x="720" y="360" width="110" height="50" as="geometry" />
        </mxCell>
        <mxCell id="ZoTZD8bzn3sdyz4J9nl_-11" style="edgeStyle=orthogonalEdgeStyle;rounded=0;orthogonalLoop=1;jettySize=auto;html=1;entryX=0.5;entryY=0;entryDx=0;entryDy=0;" edge="1" parent="1" source="ZoTZD8bzn3sdyz4J9nl_-10" target="ZoTZD8bzn3sdyz4J9nl_-3">
          <mxGeometry relative="1" as="geometry" />
        </mxCell>
        <mxCell id="ZoTZD8bzn3sdyz4J9nl_-10" value="Player continues game" style="html=1;whiteSpace=wrap;" vertex="1" parent="1">
          <mxGeometry x="720" y="470" width="110" height="50" as="geometry" />
        </mxCell>
      </root>
    </mxGraphModel>
  </diagram>
</mxfile>
